{
  "accessors": [
    {
      "bufferView": 2,
      "componentType": 5126,
      "count": 4827,
      "max": [
        4.955629825592041,
        1.7025200128555298,
        4.4346799850463867
      ],
      "min": [
        -2.4669098854064941,
        -1.7025200128555298,
        -0.029910000041127205
      ],
      "type": "VEC3"
    },
    {
      "bufferView": 2,
      "byteOffset": 57924,
      "componentType": 5126,
      "count": 4827,
      "max": [
        1,
        1,
        1
      ],
      "min": [
        -1,
        -1,
        -1
      ],
      "type": "VEC3"
    },
    {
      "bufferView": 0,
      "componentType": 5125,
      "count": 27309,
      "max": [
        4826
      ],
      "min": [
        0
      ],
      "type": "SCALAR"
    },
    {
      "bufferView": 2,
      "byteOffset": 115848,
      "componentType": 5126,
      "count": 2432,
      "max": [
        3.5249300003051758,
        1.7025200128555298,
        4.4382200241088867
      ],
      "min": [
        -2.4669098854064941,
        -1.7025200128555298,
        0.0031000000890344381
      ],
      "type": "VEC3"
    },
    {
      "bufferView": 2,
      "byteOffset": 145032,
      "componentType": 5126,
      "count": 2432,
      "max": [
        1,
        1,
        1
      ],
      "min": [
        -1,
        -1,
        -1
      ],
      "type": "VEC3"
    },
    {
      "bufferView": 0,
      "byteOffset": 109236,
      "componentType": 5125,
      "count": 14184,
      "max": [
        2431
      ],
      "min": [
        0
      ],
      "type": "SCALAR"
    },
    {
      "bufferView": 2,
      "byteOffset": 174216,
      "componentType": 5126,
      "count": 121,
      "max": [
        4.838749885559082,
        1.1539900302886963,
        3.2844500541687012
      ],
      "min": [
        3.9014999866485596,
        1.1539900302886963,
        1.7299400568008423
      ],
      "type": "VEC3"
    },
    {
      "bufferView": 2,
      "byteOffset": 175668,
      "componentType": 5126,
      "count": 121,
      "max": [
        0.81356930732727051,
        0.19401222467422485,
        1
      ],
      "min": [
        0,
        -1,
        -0.99905645847320557
      ],
      "type": "VEC3"
    },
    {
      "bufferView": 0,
      "byteOffset": 165972,
      "componentType": 5125,
      "count": 600,
      "max": [
        120
      ],
      "min": [
        0
      ],
      "type": "SCALAR"
    },
    {
      "bufferView": 2,
      "byteOffset": 177120,
      "componentType": 5126,
      "count": 50,
      "max": [
        1.5586400032043457,
        0.35572001338005066,
        4.2979497909545898
      ],
      "min": [
        -0.50432002544403076,
        -0.35572001338005066,
        4.2979497909545898
      ],
      "type": "VEC3"
    },
    {
      "bufferView": 2,
      "byteOffset": 177720,
      "componentType": 5126,
      "count": 50,
      "max": [
        0,
        0,
        -1
      ],
      "min": [
        0,
        0,
        -1
      ],
      "type": "VEC3"
    },
    {
      "bufferView": 0,
      "byteOffset": 168372,
      "componentType": 5125,
      "count": 192,
      "max": [
        49
      ],
      "min": [
        0
      ],
      "type": "SCALAR"
    },
    {
      "bufferView": 2,
      "byteOffset": 178320,
      "componentType": 5126,
      "count": 158,
      "max": [
        -3.0188601016998291,
        1.0373300313949585,
        3.7780299186706543
      ],
      "min": [
        -3.5824999809265137,
        -1.0373300313949585,
        0.029340000823140144
      ],
      "type": "VEC3"
    },
    {
      "bufferView": 2,
      "byteOffset": 180216,
      "componentType": 5126,
      "count": 158,
      "max": [
        1,
        1,
        1
      ],
      "min": [
        -1,
        -1,
        -1
      ],
      "type": "VEC3"
    },
    {
      "bufferView": 1,
      "componentType": 5126,
      "count": 158,
      "max": [
        0,
        0
      ],
      "min": [
        0,
        0
      ],
      "type": "VEC2"
    },
    {
      "bufferView": 0,
      "byteOffset": 169140,
      "componentType": 5125,
      "count": 324,
      "max": [
        157
      ],
      "min": [
        0
      ],
      "type": "SCALAR"
    },
    {
      "bufferView": 2,
      "byteOffset": 182112,
      "componentType": 5126,
      "count": 16,
      "max": [
        -3.0188601016998291,
        1.0373300313949585,
        3.7780299186706543
      ],
      "min": [
        -3.5824999809265137,
        -1.0373300313949585,
        0.60954999923706055
      ],
      "type": "VEC3"
    },
    {
      "bufferView": 2,
      "byteOffset": 182304,
      "componentType": 5126,
      "count": 16,
      "max": [
        1,
        -0,
        0
      ],
      "min": [
        -1,
        -0,
        0
      ],
      "type": "VEC3"
    },
    {
      "bufferView": 1,
      "byteOffset": 1264,
      "componentType": 5126,
      "count": 16,
      "max": [
        0,
        0
      ],
      "min": [
        0,
        0
      ],
      "type": "VEC2"
    },
    {
      "bufferView": 0,
      "byteOffset": 170436,
      "componentType": 5125,
      "count": 48,
      "max": [
        15
      ],
      "min": [
        0
      ],
      "type": "SCALAR"
    },
    {
      "bufferView": 2,
      "byteOffset": 182496,
      "componentType": 5126,
      "count": 8,
      "max": [
        -3.0188601016998291,
        0.89711999893188477,
        3.6378200054168701
      ],
      "min": [
        -3.5824999809265137,
        -0.89711999893188477,
        0.7497599720954895
      ],
      "type": "VEC3"
    },
    {
      "bufferView": 2,
      "byteOffset": 182592,
      "componentType": 5126,
      "count": 8,
      "max": [
        1,
        0,
        0
      ],
      "min": [
        -1,
        0,
        0
      ],
      "type": "VEC3"
    },
    {
      "bufferView": 1,
      "byteOffset": 1392,
      "componentType": 5126,
      "count": 8,
      "max": [
        0,
        0
      ],
      "min": [
        0,
        0
      ],
      "type": "VEC2"
    },
    {
      "bufferView": 0,
      "byteOffset": 170628,
      "componentType": 5125,
      "count": 12,
      "max": [
        7
      ],
      "min": [
        0
      ],
      "type": "SCALAR"
    },
    {
      "bufferView": 2,
      "byteOffset": 182688,
      "componentType": 5126,
      "count": 768,
      "max": [
        -3.0402200222015381,
        0.97978001832962036,
        3.5139598846435547
      ],
      "min": [
        -3.5611400604248047,
        -0.97978001832962036,
        0.87361997365951538
      ],
      "type": "VEC3"
    },
    {
      "bufferView": 2,
      "byteOffset": 191904,
      "componentType": 5126,
      "count": 768,
      "max": [
        0.995186448097229,
        0.995186448097229,
        1
      ],
      "min": [
        -0.995186448097229,
        -0.995186448097229,
        -1
      ],
      "type": "VEC3"
    },
    {
      "bufferView": 1,
      "byteOffset": 1456,
      "componentType": 5126,
      "count": 768,
      "max": [
        0,
        0
      ],
      "min": [
        0,
        0
      ],
      "type": "VEC2"
    },
    {
      "bufferView": 0,
      "byteOffset": 170676,
      "componentType": 5125,
      "count": 1488,
      "max": [
        767
      ],
      "min": [
        0
      ],
      "type": "SCALAR"
    },
    {
      "bufferView": 2,
      "byteOffset": 201120,
      "componentType": 5126,
      "count": 8,
      "max": [
        -3.1022601127624512,
        0.91289001703262329,
        3.5879800319671631
      ],
      "min": [
        -3.4990999698638916,
        -0.91289001703262329,
        0.79960000514984131
      ],
      "type": "VEC3"
    },
    {
      "bufferView": 2,
      "byteOffset": 201216,
      "componentType": 5126,
      "count": 8,
      "max": [
        1,
        0,
        0
      ],
      "min": [
        -1,
        0,
        0
      ],
      "type": "VEC3"
    },
    {
      "bufferView": 1,
      "byteOffset": 7600,
      "componentType": 5126,
      "count": 8,
      "max": [
        0.99989998340606689,
        0.9905400276184082
      ],
      "min": [
        9.9999997473787516e-05,
        0.0078800003975629807
      ],
      "type": "VEC2"
    },
    {
      "bufferView": 0,
      "byteOffset": 176628,
      "componentType": 5125,
      "count": 12,
      "max": [
        7
      ],
      "min": [
        0
      ],
      "type": "SCALAR"
    },
    {
      "bufferView": 2,
      "byteOffset": 201312,
      "componentType": 5126,
      "count": 32,
      "max": [
        8.4633703231811523,
        7.8416800498962402,
        0
      ],
      "min": [
        -7.5590901374816895,
        -8.1807804107666016,
        0
      ],
      "type": "VEC3"
    },
    {
      "bufferView": 2,
      "byteOffset": 201696,
      "componentType": 5126,
      "count": 32,
      "max": [
        0,
        0,
        1
      ],
      "min": [
        0,
        0,
        1
      ],
      "type": "VEC3"
    },
    {
      "bufferView": 0,
      "byteOffset": 176676,
      "componentType": 5125,
      "count": 90,
      "max": [
        31
      ],
      "min": [
        0
      ],
      "type": "SCALAR"
    }
  ],
  "asset": {
    "extras": {
      "author": "Victor Hernandez (https://sketchfab.com/Victor.Hernandez)",
      "license": "CC-BY-4.0 (http://creativecommons.org/licenses/by/4.0/)",
      "source": "https://sketchfab.com/3d-models/bus-stop-1ff7401eb178451b94257d1f8f15fd62",
      "title": "Bus stop"
    },
    "generator": "Sketchfab-8.3.0",
    "version": "2.0"
  },
  "bufferViews": [
    {
      "buffer": 0,
      "byteLength": 177036,
      "byteOffset": 0,
      "name": "floatBufferViews",
      "target": 34963
    },
    {
      "buffer": 0,
      "byteLength": 7664,
      "byteOffset": 177036,
      "byteStride": 8,
      "name": "floatBufferViews",
      "target": 34962
    },
    {
      "buffer": 0,
      "byteLength": 202080,
      "byteOffset": 184700,
      "byteStride": 12,
      "name": "floatBufferViews",
      "target": 34962
    }
  ],
  "buffers": [
    {
      "byteLength": 386780,
      "uri": "scene.bin"
    }
  ],
  "extensionsRequired": [
    "KHR_materials_pbrSpecularGlossiness"
  ],
  "extensionsUsed": [
    "KHR_materials_pbrSpecularGlossiness"
  ],
  "images": [
    {
      "uri": "textures/Base_Announcement_diffuse.png"
    }
  ],
  "materials": [
    {
      "alphaMode": "BLEND",
      "doubleSided": true,
      "extensions": {
        "KHR_materials_pbrSpecularGlossiness": {
          "diffuseFactor": [
            0,
            0,
            0,
            0
          ],
          "glossinessFactor": 1,
          "specularFactor": [
            0,
            0,
            0
          ]
        }
      },
      "name": "Material.001"
    },
    {
      "doubleSided": true,
      "emissiveFactor": [
        0,
        0,
        0
      ],
      "extensions": {
        "KHR_materials_pbrSpecularGlossiness": {
          "diffuseFactor": [
            0.19028566860000001,
            0.19028566860000001,
            0.19028566860000001,
            1
          ],
          "glossinessFactor": 0.78487042682926833,
          "specularFactor": [
            0.29248142128588034,
            0.29248142128588034,
            0.29248142128588034
          ]
        }
      },
      "name": "Aluminum"
    },
    {
      "alphaMode": "BLEND",
      "doubleSided": true,
      "extensions": {
        "KHR_materials_pbrSpecularGlossiness": {
          "diffuseFactor": [
            0,
            0,
            0,
            0.81878810975609762
          ],
          "glossinessFactor": 0,
          "specularFactor": [
            0,
            0,
            0
          ]
        }
      },
      "name": "Glass.002"
    },
    {
      "alphaMode": "BLEND",
      "doubleSided": true,
      "emissiveFactor": [
        0,
        0,
        0
      ],
      "extensions": {
        "KHR_materials_pbrSpecularGlossiness": {
          "diffuseFactor": [
            0.33098323169999999,
            0.33098323169999999,
            0.33098323169999999,
            0.14999999999999999
          ],
          "glossinessFactor": 0.40000000000000002,
          "specularFactor": [
            0.044397865853658534,
            0.044397865853658534,
            0.044397865853658534
          ]
        }
      },
      "name": "Glass.001"
    },
    {
      "doubleSided": true,
      "emissiveFactor": [
        1,
        1,
        1
      ],
      "extensions": {
        "KHR_materials_pbrSpecularGlossiness": {
          "diffuseFactor": [
            1,
            1,
            1,
            1
          ],
          "glossinessFactor": 0.44950457320000003,
          "specularFactor": [
            1,
            1,
            1
          ]
        }
      },
      "name": "Light"
    },
    {
      "doubleSided": true,
      "emissiveFactor": [
        0,
        0,
        0
      ],
      "extensions": {
        "KHR_materials_pbrSpecularGlossiness": {
          "diffuseFactor": [
            1,
            1,
            1,
            1
          ],
          "diffuseTexture": {
            "index": 0,
            "texCoord": 0
          },
          "glossinessFactor": 1,
          "specularFactor": [
            0,
            0,
            0
          ]
        }
      },
      "name": "Base_Announcement"
    },
    {
      "doubleSided": true,
      "emissiveFactor": [
        0,
        0,
        0
      ],
      "extensions": {
        "KHR_materials_pbrSpecularGlossiness": {
          "diffuseFactor": [
            0.082780136306999111,
            0.082780136306999111,
            0.082780136306999111,
            1
          ],
          "glossinessFactor": 0.79096798780487809,
          "specularFactor": [
            0.10381097715394436,
            0.10381097715394436,
            0.10381097715394436
          ]
        }
      },
      "name": "Material"
    },
    {
      "alphaMode": "BLEND",
      "doubleSided": true,
      "extensions": {
        "KHR_materials_pbrSpecularGlossiness": {
          "diffuseFactor": [
            0.0078125,
            0.0078125,
            0.0078125,
            0.28220274390243905
          ],
          "glossinessFactor": 0.52000762195121952,
          "specularFactor": [
            0.026105182926829267,
            0.026105182926829267,
            0.026105182926829267
          ]
        }
      },
      "name": "Glass"
    },
    {
      "doubleSided": true,
      "emissiveFactor": [
        1,
        1,
        1
      ],
      "extensions": {
        "KHR_materials_pbrSpecularGlossiness": {
          "diffuseFactor": [
            1,
            1,
            1,
            1
          ],
          "glossinessFactor": 0.40000000000000002,
          "specularFactor": [
            1,
            1,
            1
          ]
        }
      },
      "name": "Ligth"
    },
    {
      "doubleSided": true,
      "emissiveFactor": [
        1,
        1,
        1
      ],
      "extensions": {
        "KHR_materials_pbrSpecularGlossiness": {
          "diffuseFactor": [
            1,
            1,
            1,
            1
          ],
          "glossinessFactor": 0.40000000000000002,
          "specularFactor": [
            1,
            1,
            1
          ]
        }
      },
      "name": "Ligth.001"
    }
  ],
  "meshes": [
    {
      "name": "Bus stop_0",
      "primitives": [
        {
          "attributes": {
            "NORMAL": 1,
            "POSITION": 0
          },
          "indices": 2,
          "material": 6,
          "mode": 4
        }
      ]
    },
    {
      "name": "Bus stop_1",
      "primitives": [
        {
          "attributes": {
            "NORMAL": 4,
            "POSITION": 3
          },
          "indices": 5,
          "material": 7,
          "mode": 4
        }
      ]
    },
    {
      "name": "Bus stop_2",
      "primitives": [
        {
          "attributes": {
            "NORMAL": 7,
            "POSITION": 6
          },
          "indices": 8,
          "material": 8,
          "mode": 4
        }
      ]
    },
    {
      "name": "Bus stop_3",
      "primitives": [
        {
          "attributes": {
            "NORMAL": 10,
            "POSITION": 9
          },
          "indices": 11,
          "material": 9,
          "mode": 4
        }
      ]
    },
    {
      "name": "Announcement_0",
      "primitives": [
        {
          "attributes": {
            "NORMAL": 13,
            "POSITION": 12,
            "TEXCOORD_0": 14
          },
          "indices": 15,
          "material": 1,
          "mode": 4
        }
      ]
    },
    {
      "name": "Announcement_1",
      "primitives": [
        {
          "attributes": {
            "NORMAL": 17,
            "POSITION": 16,
            "TEXCOORD_0": 18
          },
          "indices": 19,
          "material": 2,
          "mode": 4
        }
      ]
    },
    {
      "name": "Announcement_2",
      "primitives": [
        {
          "attributes": {
            "NORMAL": 21,
            "POSITION": 20,
            "TEXCOORD_0": 22
          },
          "indices": 23,
          "material": 3,
          "mode": 4
        }
      ]
    },
    {
      "name": "Announcement_3",
      "primitives": [
        {
          "attributes": {
            "NORMAL": 25,
            "POSITION": 24,
            "TEXCOORD_0": 26
          },
          "indices": 27,
          "material": 4,
          "mode": 4
        }
      ]
    },
    {
      "name": "Announcement_4",
      "primitives": [
        {
          "attributes": {
            "NORMAL": 29,
            "POSITION": 28,
            "TEXCOORD_0": 30
          },
          "indices": 31,
          "material": 5,
          "mode": 4
        }
      ]
    },
    {
      "name": "Plane_0",
      "primitives": [
        {
          "attributes": {
            "NORMAL": 33,
            "POSITION": 32
          },
          "indices": 34,
          "material": 0,
          "mode": 4
        }
      ]
    }
  ],
  "nodes": [
    {
      "children": [
        1
      ],
      "name": "RootNode (gltf orientation matrix)",
      "rotation": [
        -0.70710678118654746,
        -0,
        -0,
        0.70710678118654757
      ]
    },
    {
      "children": [
        2
      ],
      "name": "RootNode (model correction matrix)"
    },
    {
      "children": [
        3,
        8,
        14
      ],
      "name": "Root"
    },
    {
      "children": [
        4,
        5,
        6,
        7
      ],
      "name": "Bus stop"
    },
    {
      "mesh": 0,
      "name": "Bus stop_0"
    },
    {
      "mesh": 1,
      "name": "Bus stop_1"
    },
    {
      "mesh": 2,
      "name": "Bus stop_2"
    },
    {
      "mesh": 3,
      "name": "Bus stop_3"
    },
    {
      "children": [
        9,
        10,
        11,
        12,
        13
      ],
      "name": "Announcement"
    },
    {
      "mesh": 4,
      "name": "Announcement_0"
    },
    {
      "mesh": 5,
      "name": "Announcement_1"
    },
    {
      "mesh": 6,
      "name": "Announcement_2"
    },
    {
      "mesh": 7,
      "name": "Announcement_3"
    },
    {
      "mesh": 8,
      "name": "Announcement_4"
    },
    {
      "children": [
        15
      ],
      "name": "Plane"
    },
    {
      "mesh": 9,
      "name": "Plane_0"
    }
  ],
  "samplers": [
    {
      "magFilter": 9729,
      "minFilter": 9987,
      "wrapS": 10497,
      "wrapT": 10497
    }
  ],
  "scene": 0,
  "scenes": [
    {
      "name": "OSG_Scene",
      "nodes": [
        0
      ]
    }
  ],
  "textures": [
    {
      "sampler": 0,
      "source": 0
    }
  ]
}

